<svg width="5" height="11" viewBox="0 0 5 11" fill="none" xmlns="http://www.w3.org/2000/svg">
<path d="M0.475295 9.56012L0.475177 9.56002L0.471056 9.5654C0.34922 9.72458 0.347953 9.96952 0.491642 10.1304L0.603525 10.0305L0.491643 10.1304C0.558529 10.2053 0.665249 10.2553 0.76381 10.2553C0.886346 10.2553 0.977461 10.196 1.04934 10.1155L1.04939 10.1155L1.0525 10.1118L4.4181 6.08867C4.41816 6.0886 4.41822 6.08853 4.41829 6.08845C4.69351 5.76188 4.69015 5.23352 4.42062 4.89618L4.42066 4.89615L4.41831 4.89335L1.05233 0.884723L1.05238 0.884679L1.04934 0.88127C0.908961 0.724074 0.656856 0.681303 0.491644 0.866312C0.356916 1.01718 0.325592 1.26697 0.476601 1.43817L3.8378 5.44112C3.86665 5.48277 3.85589 5.53502 3.84427 5.54803L3.84422 5.54799L3.84128 5.55149L0.475295 9.56012Z" fill="#838995" stroke="#838995" stroke-width="0.3"/>
</svg>
