<svg width="5" height="11" viewBox="0 0 5 11" fill="none" xmlns="http://www.w3.org/2000/svg">
<path d="M4.5247 1.43988L4.52482 1.43998L4.52894 1.4346C4.65078 1.27542 4.65205 1.03048 4.50836 0.869576C4.44147 0.794674 4.33475 0.744699 4.23619 0.744699C4.11365 0.744699 4.02254 0.804047 3.95066 0.884534L3.95061 0.884481L3.9475 0.888198L0.581902 4.91133C0.581839 4.9114 0.581776 4.91147 0.581713 4.91155C0.306491 5.23812 0.309847 5.76648 0.579378 6.10382L0.579343 6.10385L0.581692 6.10665L3.94767 10.1153L3.94762 10.1153L3.95066 10.1187C4.09104 10.2759 4.34314 10.3187 4.50836 10.1337C4.64308 9.98282 4.67441 9.73303 4.5234 9.56183L1.1622 5.55888C1.13335 5.51723 1.14411 5.46498 1.15573 5.45197L1.15578 5.45201L1.15872 5.44851L4.5247 1.43988Z" fill="#838995" stroke="#838995" stroke-width="0.3"/>
</svg>
